<svg width="30" height="30" viewBox="0 0 30 30" fill="none" xmlns="http://www.w3.org/2000/svg">
<path d="M13.2667 28.2666V26.9332C10.4889 26.6221 8.10533 25.4723 6.116 23.4839C4.12667 21.4955 2.97689 19.1119 2.66667 16.3332H1.33333C0.955556 16.3332 0.639111 16.2052 0.384 15.9492C0.128889 15.6932 0.000888889 15.3768 0 14.9999C0 14.6221 0.128 14.3057 0.384 14.0506C0.64 13.7955 0.956445 13.6675 1.33333 13.6666H2.66667C2.97778 10.8888 4.128 8.50524 6.11733 6.5159C8.10667 4.52657 10.4898 3.37679 13.2667 3.06657V1.73324C13.2667 1.35546 13.3947 1.03901 13.6507 0.783902C13.9067 0.528791 14.2231 0.400791 14.6 0.399902C14.9778 0.399902 15.2947 0.527902 15.5507 0.783902C15.8067 1.0399 15.9342 1.35635 15.9333 1.73324V3.06657C18.7111 3.37768 21.0947 4.5279 23.084 6.51724C25.0733 8.50657 26.2231 10.8897 26.5333 13.6666H27.8667C28.2444 13.6666 28.5613 13.7946 28.8173 14.0506C29.0733 14.3066 29.2009 14.623 29.2 14.9999C29.2 15.3777 29.0724 15.6946 28.8173 15.9506C28.5622 16.2066 28.2453 16.3341 27.8667 16.3332H26.5333C26.2222 19.111 25.0724 21.4946 23.084 23.4839C21.0956 25.4732 18.712 26.623 15.9333 26.9332V28.2666C15.9333 28.6444 15.8053 28.9612 15.5493 29.2172C15.2933 29.4732 14.9769 29.6008 14.6 29.5999C14.2222 29.5999 13.9058 29.4723 13.6507 29.2172C13.3956 28.9621 13.2676 28.6452 13.2667 28.2666ZM14.6 24.3332C17.1778 24.3332 19.3778 23.4221 21.2 21.5999C23.0222 19.7777 23.9333 17.5777 23.9333 14.9999C23.9333 12.4221 23.0222 10.2221 21.2 8.3999C19.3778 6.57768 17.1778 5.66657 14.6 5.66657C12.0222 5.66657 9.82222 6.57768 8 8.3999C6.17778 10.2221 5.26667 12.4221 5.26667 14.9999C5.26667 17.5777 6.17778 19.7777 8 21.5999C9.82222 23.4221 12.0222 24.3332 14.6 24.3332ZM14.6 20.3332C13.1333 20.3332 11.8778 19.811 10.8333 18.7666C9.78889 17.7221 9.26667 16.4666 9.26667 14.9999C9.26667 13.5332 9.78889 12.2777 10.8333 11.2332C11.8778 10.1888 13.1333 9.66657 14.6 9.66657C16.0667 9.66657 17.3222 10.1888 18.3667 11.2332C19.4111 12.2777 19.9333 13.5332 19.9333 14.9999C19.9333 16.4666 19.4111 17.7221 18.3667 18.7666C17.3222 19.811 16.0667 20.3332 14.6 20.3332Z" fill="#BDBDBD"/>
</svg>
